<svg id="visual" viewBox="0 0 900 200" width="900" height="200" xmlns="http://www.w3.org/2000/svg" xmlns:xlink="http://www.w3.org/1999/xlink" version="1.1"><rect x="0" y="0" width="900" height="200" fill="#222222"></rect><path d="M0 113L25 112.3C50 111.7 100 110.3 150 115.2C200 120 250 131 300 141.2C350 151.3 400 160.7 450 162.5C500 164.3 550 158.7 600 148.5C650 138.3 700 123.7 750 119C800 114.3 850 119.7 875 122.3L900 125L900 201L875 201C850 201 800 201 750 201C700 201 650 201 600 201C550 201 500 201 450 201C400 201 350 201 300 201C250 201 200 201 150 201C100 201 50 201 25 201L0 201Z" fill="#353535"></path><path d="M0 159L25 155.3C50 151.7 100 144.3 150 148C200 151.7 250 166.3 300 169.2C350 172 400 163 450 156C500 149 550 144 600 142.5C650 141 700 143 750 149C800 155 850 165 875 170L900 175L900 201L875 201C850 201 800 201 750 201C700 201 650 201 600 201C550 201 500 201 450 201C400 201 350 201 300 201C250 201 200 201 150 201C100 201 50 201 25 201L0 201Z" fill="#e86565"></path></svg>