<svg id="visual" viewBox="0 0 900 200" width="900" height="200" xmlns="http://www.w3.org/2000/svg" xmlns:xlink="http://www.w3.org/1999/xlink" version="1.1"><rect x="0" y="0" width="900" height="200" fill="#FFF"></rect><path d="M0 136L30 126C60 116 120 96 180 88.3C240 80.7 300 85.3 360 91.2C420 97 480 104 540 110.8C600 117.7 660 124.3 720 117.3C780 110.3 840 89.7 870 79.3L900 69L900 201L870 201C840 201 780 201 720 201C660 201 600 201 540 201C480 201 420 201 360 201C300 201 240 201 180 201C120 201 60 201 30 201L0 201Z" fill="#e1e1e1"></path><path d="M0 111L30 109.3C60 107.7 120 104.3 180 107.2C240 110 300 119 360 128.7C420 138.3 480 148.7 540 147.5C600 146.3 660 133.7 720 128C780 122.3 840 123.7 870 124.3L900 125L900 201L870 201C840 201 780 201 720 201C660 201 600 201 540 201C480 201 420 201 360 201C300 201 240 201 180 201C120 201 60 201 30 201L0 201Z" fill="#868686"></path><path d="M0 188L30 180.7C60 173.3 120 158.7 180 150.3C240 142 300 140 360 145C420 150 480 162 540 171.2C600 180.3 660 186.7 720 184.2C780 181.7 840 170.3 870 164.7L900 159L900 201L870 201C840 201 780 201 720 201C660 201 600 201 540 201C480 201 420 201 360 201C300 201 240 201 180 201C120 201 60 201 30 201L0 201Z" fill="#353535"></path></svg>