<svg id="visual" viewBox="0 0 900 200" width="900" height="200" xmlns="http://www.w3.org/2000/svg" xmlns:xlink="http://www.w3.org/1999/xlink" version="1.1"><rect x="0" y="0" width="900" height="200" fill="#353535"></rect><path d="M0 119L30 116.2C60 113.3 120 107.7 180 114C240 120.3 300 138.7 360 142.8C420 147 480 137 540 136.5C600 136 660 145 720 141.2C780 137.3 840 120.7 870 112.3L900 104L900 201L870 201C840 201 780 201 720 201C660 201 600 201 540 201C480 201 420 201 360 201C300 201 240 201 180 201C120 201 60 201 30 201L0 201Z" fill="#2d2d2d"></path><path d="M0 156L30 151.8C60 147.7 120 139.3 180 141.7C240 144 300 157 360 162.8C420 168.7 480 167.3 540 158.3C600 149.3 660 132.7 720 130.2C780 127.7 840 139.3 870 145.2L900 151L900 201L870 201C840 201 780 201 720 201C660 201 600 201 540 201C480 201 420 201 360 201C300 201 240 201 180 201C120 201 60 201 30 201L0 201Z" fill="#272727"></path><path d="M0 148L30 153.8C60 159.7 120 171.3 180 172.3C240 173.3 300 163.7 360 165C420 166.3 480 178.7 540 184.7C600 190.7 660 190.3 720 185C780 179.7 840 169.3 870 164.2L900 159L900 201L870 201C840 201 780 201 720 201C660 201 600 201 540 201C480 201 420 201 360 201C300 201 240 201 180 201C120 201 60 201 30 201L0 201Z" fill="#222222"></path></svg>